<?xml version="1.0" encoding="UTF-8"?><svg xmlns="http://www.w3.org/2000/svg" viewBox="0 0 100.01 317.08"><defs><style>.d{fill:#997741;}.e{fill:#5b4218;}.f{fill:#c4922c;}.g{fill:#714f1f;}.h{fill:#8a693b;}</style></defs><g id="a"/><g id="b"><g id="c"><path class="d" d="M100.01,146.77v160.02c0,5.69-4.61,10.29-10.29,10.29H10.29c-5.69,0-10.29-4.6-10.29-10.29V146.77c0-13.74,10.42-25.06,23.8-26.46l4.2-56.66,4.84-46.21h-1c-2.12,0-3.84-1.72-3.84-3.84V3.84c0-2.12,1.72-3.84,3.84-3.84h36.32c2.12,0,3.84,1.72,3.84,3.84V13.6c0,2.12-1.72,3.84-3.84,3.84h-.67l4.51,46.21,4.56,56.71c13.21,1.56,23.45,12.79,23.45,26.41Z"/><path class="h" d="M10.29,310.08c-1.81,0-3.29-1.48-3.29-3.29V146.77c0-10.07,7.54-18.45,17.53-19.5l5.82-.61,4.62-62.39,5.64-53.83h-5.61v-3.44h30v3.44h-5.23l5.25,53.83,5.02,62.37,5.7,.67c9.85,1.16,17.27,9.53,17.27,19.46v160.02c0,1.81-1.48,3.29-3.29,3.29H10.29Z"/><path class="f" d="M30.56,145.06c1.34,6-2.36,154.06-2.36,154.06,0,0,2,10.96,11.33,10.96H21.05c-3.77,0-6.83-3.06-6.83-6.83V146.91s6.71-17.19,17.89-18.06c5.85-5.54,8.09-81.06,8.09-81.06l3.28-35.54c.07-.79-.55-1.47-1.34-1.47h-1.08v-3.78h7.03v1.87c0,1.05,.86,1.91,1.91,1.91h0l-7.27,122.49s-13.5,5.79-12.17,11.79Z"/><rect class="g" x=".24" y="163.87" width="99.53" height="103.33"/><path class="e" d="M38.24,163.87h61.53v103.33H38.24c-5.54,0-10.04-4.5-10.04-10.04v-83.25c0-5.54,4.5-10.04,10.04-10.04Z"/></g></g></svg>