<?xml version="1.0" encoding="UTF-8"?><svg xmlns="http://www.w3.org/2000/svg" viewBox="0 0 147.16 212.72"><defs><style>.d{fill:#f15e60;}.e{fill:#fffdf7;opacity:.44;}.f{fill:#e0ddda;}.g{fill:#bcbcbc;}.h{fill:#f8ed47;}.i{fill:#fef59c;}</style></defs><g id="a"/><g id="b"><g id="c"><path class="h" d="M134.64,42.78c-.76,.73-2.01,.53-2.5-.41l-.72-1.36-8.45-16.09-3.8-7.24-7.12-14.23c-.36-.71,.02-1.57,.78-1.8,5.13-1.49,22.57-5.33,31.46,8.25,8.76,13.36-4.88,28.29-9.65,32.88Z"/><path class="i" d="M124.73,17.42l7.72-11.39c.54-.8,1.53-1.12,2.4-.77,2.81,1.11,6.91,1.46,8.95,9.66,.32,1.29-.53,2.6-1.79,2.72-8.04,.81-12.16,3.59-15.66,3.36-1.69-.11-2.6-2.13-1.61-3.59Z"/><path class="i" d="M120.42,18.16l-5.54-12.61c-.23-.94,.62-2.34,1.46-2.76,2.7-1.34,5.43-2.21,13.17-.15,1.29,.34,1.57,2.13,.82,3.16-4.79,6.51-5.32,10.43-7.84,12.87-1.22,1.18-1.64,1.2-2.06-.5Z"/><path class="i" d="M127.99,22.1l14.8-3.42c.92-.1,1.81,.44,2.16,1.32,1.12,2.81,.45,5.76-3.89,12.47-.69,1.06-2.16,1.24-3.11,.37-5.99-5.53-9.05-5.19-11.25-7.96-1.06-1.34-.38-2.6,1.3-2.78Z"/><path class="i" d="M137.88,36.81c-1,1.93-2.66,3.22-6.46,4.2l-8.45-16.09c.59-.4,1.43-.25,2.2,.47l12.28,8.93c.68,.63,.85,1.66,.42,2.49Z"/><path class="g" d="M76.98,99.62c-2.3,15.68-2.97,87.82,.72,96.67,2.72,6.53,22.58,12.36,33.81,14.97,.74,.17,.63,1.46-.12,1.46H25.21c-.76,0-.87-1.28-.13-1.46,11.22-2.61,31.09-8.44,33.81-14.97,3.69-8.86,3.02-81,.73-96.67C55.24,69.87,6.39,24.24,.17,18.79c-.47-.42,.09-1.11,.8-1.11H135.61c.72,0,1.28,.69,.8,1.11-6.21,5.45-55.06,51.08-59.43,80.83Z"/><path class="f" d="M43.59,209.4c8.56-3.12,16.37-7.18,18.36-12.04,4.11-10.04,3.11-85.12,.95-100.17C58.9,69.56,21.31,31.05,7.45,17.68h121.68c-13.85,13.38-51.46,51.92-55.44,79.51-2.17,15.03-3.18,90.11,.94,100.17,1.99,4.85,9.8,8.92,18.36,12.04H43.59Z"/><path class="d" d="M28.36,39.54c12.48,14.49,26.75,33.49,32.54,50.25,.58,1.67,2.08,2.77,3.75,2.77h7.27c1.67,0,3.17-1.1,3.75-2.77,5.79-16.74,20.07-35.76,32.55-50.25H28.36Z"/><path class="e" d="M14.89,17.68s45.22,47.79,49.52,74.88c0,0,5.34,93.26,1.53,103.32-3.81,10.07-17.14,13.51-17.14,13.51h8.98s9.59-3.71,10.51-12.96c.92-9.25,3.43-67.63,0-103.87,0,0-19.15-72.66-35.48-74.88H14.89Z"/></g></g></svg>