<?xml version="1.0" encoding="UTF-8"?><svg xmlns="http://www.w3.org/2000/svg" viewBox="0 0 136.59 226.12"><defs><style>.d,.e{fill:#f15822;}.e,.f,.g,.h{opacity:.69;}.i{fill:#cde3a5;}.f,.j{fill:#d74626;}.k{fill:#f47a46;}.l{fill:#fffdf7;opacity:.44;}.m{fill:#e0ddda;}.g,.n,.o{fill:#7b6a2b;}.p{fill:#bcbcbc;}.n{opacity:.82;}.h{fill:#745020;}</style></defs><g id="a"/><g id="b"><g id="c"><path class="p" d="M76.98,113.02c-2.3,15.68-2.97,87.82,.72,96.67,2.72,6.53,22.58,12.36,33.81,14.97,.74,.17,.63,1.46-.12,1.46H25.21c-.76,0-.87-1.28-.13-1.46,11.22-2.61,31.09-8.44,33.81-14.97,3.69-8.86,3.02-81,.73-96.67C55.24,83.28,6.39,37.65,.17,32.19c-.47-.42,.09-1.11,.8-1.11H135.61c.72,0,1.28,.69,.8,1.11-6.21,5.45-55.06,51.08-59.43,80.83Z"/><path class="m" d="M43.59,222.8c8.56-3.12,16.37-7.18,18.36-12.04,4.11-10.04,3.11-85.12,.95-100.17C58.9,82.96,21.31,44.46,7.45,31.09h121.68c-13.85,13.38-51.46,51.92-55.44,79.51-2.17,15.03-3.18,90.11,.94,100.17,1.99,4.85,9.8,8.92,18.36,12.04H43.59Z"/><path class="i" d="M27.85,52.94c12.64,14.49,27.1,33.29,32.96,50.24,.59,1.69,2.11,2.8,3.8,2.8h7.36c1.69,0,3.21-1.11,3.8-2.8,5.86-16.93,20.33-35.74,32.97-50.24H27.85Z"/><path class="l" d="M17.28,34.41s42.83,44.47,47.13,71.56c0,0,5.34,93.26,1.53,103.32-3.81,10.07-17.14,13.51-17.14,13.51h8.98s9.59-3.71,10.51-12.96c.92-9.25,3.43-67.63,0-103.87,0,0-16.76-69.34-33.09-71.56H17.28Z"/><polygon class="h" points="79.08 64.03 113.68 13.93 124.75 0 118.99 14.47 82.13 66.84 68.29 81.9 79.08 64.03"/><path class="n" d="M126.07,31.09c-2.54,4.26-6.67,7.03-11.32,7.03s-8.78-2.77-11.32-7.03h22.64Z"/><path class="o" d="M128.77,21.03c0,3.76-1,7.24-2.7,10.06h-22.64c-1.7-2.82-2.7-6.3-2.7-10.06,0-9.44,6.28-17.09,14.02-17.09s14.02,7.65,14.02,17.09Z"/><path class="k" d="M122.95,31.09c-.81,.5-1.76,.78-2.78,.78s-1.97-.28-2.78-.78h5.56Z"/><path class="d" d="M125.59,26.45c0,1.97-1.06,3.7-2.64,4.64h-5.56c-1.58-.94-2.64-2.67-2.64-4.64,0-2.99,2.43-5.42,5.42-5.42s5.42,2.43,5.42,5.42Z"/><path class="o" d="M101.58,31.09h-11.62c1.75-1.16,3.72-1.81,5.81-1.81s4.06,.65,5.81,1.81Z"/><path class="g" d="M108.74,46.37c0,9.44-5.8,17.1-12.97,17.1s-12.97-7.66-12.97-17.1c0-6.68,2.91-12.47,7.16-15.28h11.62c4.25,2.8,7.16,8.59,7.16,15.28Z"/><ellipse class="e" cx="90.76" cy="43.78" rx="5.01" ry="5.42"/><circle class="f" cx="91.64" cy="44.65" r="4.54"/><circle class="j" cx="119.29" cy="25.57" r="4.54"/></g></g></svg>