<?xml version="1.0" encoding="UTF-8"?><svg xmlns="http://www.w3.org/2000/svg" viewBox="0 0 160.65 189.07"><defs><style>.d{fill:#ddd76d;}.e{fill:#917c2f;}.f{fill:#f0efef;}.g{fill:#e9e970;}.h{fill:#d9ad27;}.i{fill:#e0ddda;}.j{fill:#bcbcbc;}.k{fill:#c9c65e;}</style></defs><g id="a"/><g id="b"><g id="c"><ellipse class="g" cx="34.06" cy="34.51" rx="34.06" ry="34.51"/><path class="k" d="M35.65,29.68l9.6-20.75c.37-.81,.06-1.77-.72-2.18-3.15-1.68-11.22-5.06-18.56-.41-1.02,.64-1.45,1.92-1.05,3.07,2.68,7.7,6.95,16.51,8.86,20.31,.39,.79,1.51,.77,1.88-.03Z"/><path class="k" d="M39.5,32.2l22.02-5.22c.86-.2,1.41-1.05,1.25-1.92-.65-3.54-3.03-12.05-11.18-15.02-1.13-.41-2.39,.04-3.03,1.07-4.31,6.9-8.49,15.75-10.25,19.63-.36,.8,.34,1.67,1.19,1.47Z"/><path class="k" d="M31.08,30.72L21.47,9.97c-.37-.81-1.3-1.18-2.12-.84-3.29,1.38-11.01,5.5-12.19,14.19-.16,1.2,.53,2.36,1.66,2.78,7.56,2.84,16.97,5.15,21.08,6.09,.85,.2,1.54-.68,1.18-1.48Z"/><path class="k" d="M28.27,33.85L6.3,28.41c-.85-.21-1.72,.29-1.97,1.14-1,3.46-2.68,12.14,3.26,18.52,.82,.88,2.15,1.06,3.18,.44,6.93-4.18,14.61-10.16,17.91-12.8,.68-.55,.44-1.65-.4-1.86Z"/><path class="k" d="M31.05,36.92l-17.82,14.11c-.69,.55-.84,1.55-.33,2.28,2.06,2.94,7.75,9.65,16.37,8.87,1.19-.11,2.15-1.05,2.31-2.25,1.05-8.1,1.17-17.91,1.17-22.17,0-.88-1-1.37-1.69-.83Z"/><path class="k" d="M35.08,37.74l.47,22.91c.02,.89,.72,1.61,1.6,1.63,3.55,.09,12.27-.5,16.82-7.96,.63-1.03,.46-2.37-.4-3.22-5.77-5.7-13.45-11.68-16.83-14.23-.7-.53-1.69,0-1.67,.87Z"/><path class="j" d="M132.83,189.07H61.1c-3.09,0-5.69-1.91-6.06-4.44L33.29,35.81c-.1-.69,.55-1.3,1.4-1.3h124.56c.84,0,1.5,.61,1.4,1.3l-21.75,148.82c-.37,2.53-2.97,4.44-6.06,4.44Z"/><path class="i" d="M61.1,184.74c-.44,0-.8-.28-.86-.65L39.38,37.06c-.19-1.36,1.05-2.56,2.66-2.56h109.86c1.61,0,2.85,1.2,2.66,2.56l-20.87,147.03c-.05,.37-.42,.65-.86,.65H61.1Z"/><path class="e" d="M133.39,185.64l-71.25-.61c-1.44,.18-2.3-.49-2.07-1.56l-13.08-91.24h100.42l-11.89,91.82c-.12,.91-1.04,1.6-2.12,1.59Z"/><polygon class="f" points="75.59 92.24 55.9 92.24 47.97 38.84 67.66 38.84 75.59 92.24"/><polygon class="h" points="88.16 185.02 68.48 185.02 56.14 92.24 75.82 92.24 88.16 185.02"/><path class="d" d="M29.5,6.6l-.28,.85c-.1,.3-.11,.62-.03,.92l5.26,20-7.36-18.95c-.1-.26-.11-.54-.03-.81l.22-.72c.23-.76,.92-1.28,1.71-1.28h.51Z"/><path class="d" d="M52.72,12.82l-.8,.36c-.28,.13-.52,.33-.69,.6l-11.08,17.39,8.9-18.26c.12-.25,.32-.45,.57-.57l.68-.32c.71-.34,1.56-.17,2.08,.42l.35,.39Z"/><path class="d" d="M9.67,21.05l.47,.75c.16,.27,.4,.48,.68,.61l18.57,8.62-19.12-6.31c-.26-.09-.48-.26-.63-.49l-.41-.63c-.43-.66-.38-1.54,.11-2.15l.33-.4Z"/><path class="d" d="M7.18,45.22l.88,.08c.31,.03,.62-.03,.89-.18l18.06-9.68-16.58,11.53c-.23,.16-.5,.23-.77,.21l-.75-.05c-.78-.06-1.44-.62-1.61-1.4l-.12-.51Z"/><path class="d" d="M27.02,60.13l.61-.64c.21-.23,.36-.51,.41-.82l3.72-20.35-1.38,20.32c-.02,.28-.13,.54-.31,.74l-.51,.56c-.53,.59-1.38,.75-2.08,.41l-.46-.22Z"/></g></g></svg>