<?xml version="1.0" encoding="UTF-8"?><svg xmlns="http://www.w3.org/2000/svg" viewBox="0 0 147.89 223.23"><defs><style>.d{fill:#ffce45;}.e{fill:#f7911e;}.f{fill:#fffdf7;opacity:.44;}.g{fill:#e0ddda;}.h{fill:#bcbcbc;}</style></defs><g id="a"/><g id="b"><g id="c"><path class="d" d="M127.31,37.43c7.93,10.94,20.07,9.08,20.58,9-.39,.4-13.1,12.87-28.58,9.33-15.73-3.59-22.63-20.79-22.63-20.79,0,0-1.29-14.75-10.78-23.91L90.51,.49c.06,0,.14,.02,.19,.03,2.95,.58,5.71,1.59,8.29,2.71,8.48,3.7,20.23,23.02,28.32,34.19Z"/><path class="d" d="M90.51,.49l-4.61,10.56s-.01-.02-.02-.02c-1.36-1.31-2.89-2.51-4.6-3.53-4.3-2.57-7.29-3.59-9.38-3.79C78.82-.13,85-.56,90.51,.49Z"/><path class="h" d="M76.98,110.13c-2.3,15.68-2.97,87.82,.72,96.67,2.72,6.53,22.58,12.36,33.81,14.97,.74,.17,.63,1.46-.12,1.46H25.21c-.76,0-.87-1.28-.13-1.46,11.22-2.61,31.09-8.44,33.81-14.97,3.69-8.86,3.02-81,.73-96.67C55.24,80.39,6.39,34.76,.17,29.3c-.47-.42,.09-1.11,.8-1.11H135.61c.72,0,1.28,.69,.8,1.11-6.21,5.45-55.06,51.08-59.43,80.83Z"/><path class="g" d="M43.59,219.91c8.56-3.11,16.37-7.17,18.36-12.02,4.11-10.02,3.11-85.01,.95-100.04C58.9,80.25,21.31,41.8,7.45,28.44h121.68c-13.85,13.37-51.46,51.86-55.44,79.4-2.17,15.01-3.18,89.99,.94,100.04,1.99,4.85,9.8,8.91,18.36,12.02H43.59Z"/><path class="e" d="M25.7,50.05c13.31,14.49,28.54,33.49,34.72,50.25,.62,1.67,2.22,2.77,4,2.77h7.75c1.78,0,3.38-1.1,4-2.77,6.18-16.74,21.41-35.76,34.72-50.25H25.7Z"/><path class="f" d="M13.77,28.44s46.34,47.55,50.64,74.63c0,0,5.34,93.26,1.53,103.32-3.81,10.07-17.14,13.51-17.14,13.51h8.98s9.59-3.71,10.51-12.96c.92-9.25,3.43-67.63,0-103.87,0,0-20.27-72.41-36.6-74.63H13.77Z"/></g></g></svg>