<?xml version="1.0" encoding="UTF-8"?><svg xmlns="http://www.w3.org/2000/svg" viewBox="0 0 178.24 219.2"><defs><style>.d{fill:#e0ddda;}.e{fill:#dfebb5;}.f{fill:#b3d336;}.g{fill:#bcbcbc;}.h{fill:#d5e48c;}.i{fill:#fdfefc;opacity:.68;}.j{fill:#d4e389;}</style></defs><g id="a"/><g id="b"><g id="c"><ellipse class="f" cx="32.31" cy="32.73" rx="32.31" ry="32.73"/><path class="h" d="M33.81,28.98l9.1-19.68c.35-.76,.06-1.68-.68-2.07-2.98-1.59-10.64-4.79-17.61-.39-.96,.61-1.37,1.82-1,2.91,2.54,7.31,6.59,15.66,8.4,19.26,.37,.74,1.43,.73,1.78-.03Z"/><path class="h" d="M36.31,30.97l22.5-5.33c.87-.21,1.44-1.07,1.27-1.96-.66-3.62-3.1-12.31-11.42-15.34-1.15-.42-2.44,.04-3.09,1.09-4.4,7.05-8.67,16.09-10.47,20.05-.37,.82,.35,1.71,1.21,1.5Z"/><path class="h" d="M30.03,29.97L20.92,10.29c-.35-.76-1.24-1.12-2.01-.79-3.12,1.31-10.45,5.22-11.56,13.46-.15,1.14,.51,2.24,1.57,2.64,7.17,2.7,16.1,4.88,19.99,5.78,.8,.19,1.47-.65,1.12-1.4Z"/><path class="h" d="M27.66,32.67L6.82,27.51c-.81-.2-1.63,.27-1.87,1.08-.95,3.28-2.54,11.51,3.09,17.56,.78,.84,2.04,1,3.01,.42,6.57-3.96,13.85-9.63,16.99-12.14,.65-.52,.42-1.56-.38-1.76Z"/><path class="h" d="M29.45,35.02l-16.9,13.38c-.66,.52-.8,1.47-.32,2.16,1.95,2.79,7.35,9.15,15.53,8.42,1.13-.1,2.04-1,2.19-2.14,1-7.68,1.11-16.98,1.11-21.03,0-.84-.95-1.3-1.6-.79Z"/><path class="e" d="M27.97,6.26l-.26,.8c-.09,.28-.1,.58-.03,.87l4.99,18.97-6.98-17.98c-.1-.24-.11-.51-.03-.77l.21-.69c.22-.72,.88-1.21,1.62-1.21h.49Z"/><path class="e" d="M50,12.16l-.76,.34c-.27,.12-.5,.32-.65,.57l-10.51,16.49,8.44-17.32c.11-.24,.31-.43,.54-.54l.64-.31c.67-.32,1.48-.16,1.98,.4l.33,.37Z"/><path class="e" d="M9.17,19.97l.44,.72c.16,.25,.38,.45,.65,.57l17.62,8.18-18.13-5.99c-.25-.08-.46-.25-.6-.47l-.39-.6c-.41-.63-.37-1.46,.11-2.04l.31-.38Z"/><path class="e" d="M6.81,42.89l.83,.08c.29,.03,.58-.03,.84-.17l17.13-9.18-15.72,10.93c-.21,.15-.47,.22-.73,.2l-.71-.05c-.74-.05-1.36-.59-1.53-1.33l-.11-.48Z"/><path class="e" d="M25.63,57.03l.58-.61c.2-.21,.34-.48,.39-.78l3.53-19.3-1.3,19.27c-.02,.26-.12,.51-.3,.7l-.48,.53c-.5,.56-1.3,.71-1.98,.39l-.44-.21Z"/><path class="g" d="M158.07,87.97c-25.68,17.3-36.7,15.07-39.27,18.42-1.89,2.44-5.48,12.64-5.94,14.56-.18,.74,0,1.51,.48,2.17l1.9,2.55c.39,.52,.54,1.11,.45,1.7l-4.67,76.28c-.37,3.09,1.75,5.93,4.81,6.45l25.56,4.41c.85,.14,1.6,.63,2.08,1.33l1.1,1.6c.51,.75-.03,1.76-.93,1.76H66.89c-.91,0-1.45-1.01-.93-1.76l1.09-1.6c.49-.71,1.24-1.19,2.08-1.33l25.57-4.41c3.07-.53,5.18-3.37,4.81-6.45l-4.66-76.28c-.1-.59,.06-1.18,.44-1.7l1.9-2.55c.5-.66,.67-1.43,.49-2.17-.46-1.91-4.06-12.11-5.94-14.56-2.58-3.35-13.61-1.12-39.27-18.42-25.68-17.3-19.52-55.24-19.52-55.24H177.6s6.15,37.94-19.52,55.24Z"/><path class="d" d="M93.81,214.7l2.01-.35c5.33-.92,9.02-5.81,8.45-11.18l-4.62-75.58,1.44-1.94c1.27-1.7,1.72-3.83,1.24-5.84-.4-1.65-4.16-12.87-6.73-16.21-1.78-2.3-4.4-3.02-8.04-4.01-5.92-1.61-15.83-4.3-32.26-15.38-18.61-12.54-18.71-42.13-18.02-51.59H173.98c.67,9.47,.52,39.09-18.01,51.59-16.44,11.07-26.34,13.77-32.26,15.38-3.64,.99-6.27,1.71-8.04,4.01-2.6,3.36-6.34,14.58-6.73,16.22-.48,1.98-.03,4.11,1.22,5.81l1.46,1.96-4.63,75.57c-.57,5.37,3.12,10.26,8.46,11.18l2.01,.35h-23.65Z"/><path class="j" d="M37.19,44.72c.55,12.9,4.02,32.2,18.13,41.7,16.43,11.08,26.34,13.77,32.26,15.38,3.64,.99,7.51,1.67,9.29,3.97,.04,.05,.08,.11,.12,.16l17.23,.07c.04-.05,.08-.11,.12-.16,1.77-2.31,5.74-3.06,9.38-4.05,5.92-1.61,15.83-4.31,32.26-15.38,14.05-9.47,17.53-28.79,18.1-41.7H37.19Z"/><path class="i" d="M44.38,32.63s-2.28,15.37,2.41,26.3c5.39,12.58,5.27,22.64,37.94,29.7,1.1,.24,11.28,6.27,13.03,9.52s7.26,14.87,6.55,16.37-2.67,17.21-2.67,17.21l-.11,8.98,1.46,68.45-4.98,5.53h3.51l2.61-5.42-.13-77.96,2.95-17.19-4.92-17.99s.15-11.7-13.8-19.21c-9.92-5.33-16.65-14.53-19.72-19.4-1.22-1.95-1.95-4.16-2.09-6.46l-1.15-18.45h-20.88Z"/></g></g></svg>