<?xml version="1.0" encoding="UTF-8"?><svg xmlns="http://www.w3.org/2000/svg" viewBox="0 0 198.8 236.41"><defs><style>.d{fill:#f8f9e2;}.e{fill:#f0efef;}.f{fill:#e0ddda;}.g{fill:#dfebb5;}.h{fill:#b3d336;}.i{fill:#bcbcbc;}.j{fill:#c9c65e;}.k{fill:#d5e48c;}.l{fill:#dde9a5;}</style></defs><g id="a"/><g id="b"><g id="c"><ellipse class="h" cx="36.64" cy="37.11" rx="36.64" ry="37.11"/><path class="k" d="M38.34,32.86l10.32-22.32c.4-.87,.06-1.9-.77-2.35-3.38-1.8-12.07-5.44-19.97-.45-1.09,.69-1.56,2.07-1.13,3.3,2.88,8.29,7.48,17.76,9.53,21.85,.42,.84,1.62,.82,2.02-.03Z"/><path class="k" d="M42.49,35.11l23.69-5.62c.92-.22,1.51-1.13,1.34-2.07-.7-3.81-3.26-12.97-12.02-16.15-1.21-.44-2.57,.04-3.26,1.15-4.64,7.42-9.13,16.94-11.03,21.11-.39,.86,.37,1.8,1.28,1.58Z"/><path class="k" d="M34.06,33.99L23.73,11.68c-.4-.87-1.4-1.27-2.28-.9-3.53,1.48-11.85,5.92-13.11,15.26-.17,1.29,.57,2.54,1.78,2.99,8.13,3.06,18.25,5.54,22.67,6.55,.91,.21,1.66-.74,1.26-1.59Z"/><path class="k" d="M31.37,37.05L7.74,31.2c-.92-.23-1.85,.31-2.12,1.23-1.08,3.72-2.88,13.06,3.5,19.92,.88,.95,2.31,1.14,3.42,.47,7.45-4.49,15.71-10.92,19.26-13.77,.73-.59,.48-1.77-.43-2Z"/><path class="k" d="M33.4,39.71l-19.17,15.17c-.74,.59-.91,1.67-.36,2.45,2.21,3.16,8.34,10.38,17.61,9.55,1.28-.12,2.31-1.13,2.48-2.42,1.13-8.71,1.26-19.26,1.26-23.85,0-.95-1.08-1.48-1.82-.89Z"/><path class="j" d="M37.73,40.59l.51,24.64c.02,.96,.77,1.73,1.72,1.76,3.82,.1,13.2-.54,18.09-8.56,.68-1.11,.49-2.55-.43-3.46-6.2-6.14-14.47-12.56-18.1-15.31-.75-.57-1.81-.01-1.79,.94Z"/><path class="g" d="M31.73,7.09l-.3,.91c-.1,.32-.12,.66-.03,.99l5.65,21.51-7.92-20.39c-.11-.28-.12-.58-.03-.87l.24-.78c.25-.82,.99-1.37,1.84-1.37h.55Z"/><path class="g" d="M56.7,13.79l-.87,.39c-.3,.14-.56,.36-.74,.64l-11.92,18.7,9.58-19.64c.13-.27,.35-.48,.61-.61l.73-.35c.76-.36,1.67-.18,2.24,.45l.37,.41Z"/><path class="g" d="M10.4,22.64l.5,.81c.18,.29,.43,.51,.73,.65l19.98,9.28-20.56-6.79c-.28-.09-.52-.28-.68-.53l-.44-.68c-.46-.71-.41-1.65,.12-2.31l.35-.43Z"/><path class="g" d="M7.72,48.64l.94,.09c.33,.03,.66-.04,.96-.19l19.42-10.41-17.83,12.4c-.24,.17-.53,.25-.83,.23l-.8-.06c-.84-.06-1.55-.67-1.74-1.51l-.12-.55Z"/><path class="g" d="M29.06,64.68l.65-.69c.23-.24,.38-.55,.45-.88l4-21.89-1.48,21.86c-.02,.3-.14,.58-.34,.8l-.54,.6c-.57,.63-1.48,.81-2.24,.44l-.5-.24Z"/><path class="i" d="M126.74,128.44v80.06l40.06,19.52c2.67,1.3,4.37,4.02,4.37,6.99h0c0,.78-.63,1.4-1.4,1.4H58.97c-.78,0-1.4-.63-1.4-1.4h0c0-2.97,1.7-5.69,4.37-6.99l40.05-19.52v-80.06c0-5.62-4.56-10.18-10.18-10.18h-3c-12.33,0-22.32-9.99-22.32-22.32v-1.87c0-6.51-5.28-11.78-11.78-11.78h0c-8.94,0-16.19-7.25-16.19-16.19v-23.32c0-3.45,2.8-6.24,6.24-6.24H192.55c3.45,0,6.24,2.8,6.24,6.24v23.32c0,8.94-7.25,16.19-16.19,16.19h-4.34c-6.51,0-11.78,5.28-11.78,11.78v1.87c0,12.33-9.99,22.32-22.32,22.32h-7.24c-5.62,0-10.18,4.56-10.18,10.18Z"/><path class="f" d="M72.25,231.4c-.6,0-.77-.82-.23-1.06l33.23-14.81,4.48-2.14v-84.95c0-9.93-8.23-18.01-18.35-18.01h-3.06c-8.14,0-14.77-6.5-14.77-14.5v-1.87c0-10.81-8.96-19.61-19.98-19.61-4.7,0-8.52-3.75-8.52-8.36v-17.69c0-2.24,1.81-4.05,4.05-4.05H188.36c2.24,0,4.05,1.81,4.05,4.05v17.69c0,4.61-3.82,8.36-8.52,8.36h-4.42c-11.02,0-19.98,8.8-19.98,19.61v1.87c0,7.99-6.63,14.5-14.77,14.5h-7.37c-10.12,0-18.35,8.08-18.35,18.01v84.95l38.24,16.68c.69,.3,.47,1.33-.28,1.33H72.25Z"/><path class="e" d="M61.34,44.35v16.9s-1.51,7.54,5.27,7.91c6.78,.38,13.19,8.29,13.19,8.29v15.07s-1.88,5.27,5.65,8.29c7.54,3.01,13.24-.38,20.75,8.67,7.51,9.04,6,15.07,6,15.07l.12,91.55-27.2,15.31h12.06l18.78-14.55V125.3s5.71-30.14-9.77-30.52c-15.47-.38-12.08-10.93-12.08-10.93,0,0,.75-19.21-9.04-19.21s-8.29-10.93-8.29-10.93l-.75-9.37h-14.69Z"/><path class="l" d="M45.05,56.42v8.2c0,7.06,3.78,9.84,8.52,9.84,11.12,0,20.24,8.74,20.24,20.45v2.02c0,8.65,6.69,15.69,14.9,15.69h3.09c4.55,0,10.56,1.74,13.78,4.62h17.25c3.23-2.88,3.59-4.6,10.8-4.62h11.99c8.22,0,14.9-7.04,14.9-15.69v-2.02c0-11.71,8.98-20.45,20.09-20.45l4.6,.24c4.74,0,7.33-5.07,7.33-10.06l-.15-8.21H45.05Z"/><path class="d" d="M61.34,56.42h15.41s-.41,7.9,8.33,8.22,8.89,14.45,8.89,14.45c0,0-2.73,14.54,6.34,14.87s13.97,1.89,15.25,8.76,1.43,14.53,1.43,14.53h-5.97s-8.56-15.88-18.52-14.86c-9.97,1.02-13.09-6.03-12.89-7.95s2.27-18.54-1.05-19.37-8.81-6.01-13.19-6.07c-2.58-1.36-4.03-1.01-4.03-7.74s0-4.83,0-4.83Z"/></g></g></svg>