<?xml version="1.0" encoding="UTF-8"?><svg xmlns="http://www.w3.org/2000/svg" viewBox="0 0 131.07 318.83"><defs><style>.d{fill:#fef59c;}.d,.e{opacity:.76;}.f{fill:#d8e9b8;}.g{fill:#f0efef;}.h{fill:#acd372;}.h,.i{opacity:.57;}.i{fill:#81c341;}.j,.k,.l{opacity:.63;}.j,.m{fill:#dcddde;}.n,.k{fill:#f1f2f2;}.o{fill:#e0ddda;}.l,.p{fill:#b8babc;}.q{fill:#bcbcbc;}.e{fill:#86c548;}.r{fill:#e1f1e1;opacity:.67;}</style></defs><g id="a"/><g id="b"><g id="c"><path class="q" d="M99.55,318.83H27.82c-3.09,0-5.69-2.66-6.06-6.19L.01,105.13c-.1-.97,.55-1.82,1.4-1.82H125.97c.84,0,1.5,.85,1.4,1.82l-21.75,207.51c-.37,3.53-2.97,6.19-6.06,6.19Z"/><path class="o" d="M27.82,312.78c-.44,0-.8-.39-.86-.9L6.1,106.88c-.19-1.9,1.05-3.57,2.66-3.57H118.62c1.61,0,2.85,1.67,2.66,3.57l-20.87,205.01c-.05,.51-.42,.9-.86,.9H27.82Z"/><path class="f" d="M100.11,314.19l-71.25-1.01c-1.44,.3-2.3-.82-2.07-2.59L11.87,158.98H115.97l-13.74,152.56c-.12,1.52-1.04,2.66-2.12,2.64Z"/><polygon class="g" points="39.06 181.38 19.37 181.38 11.44 104.73 31.12 104.73 39.06 181.38"/><path class="h" d="M30.11,239.61v.02c.67,.87,21.52,28.87,24.35,33.4,2.86,4.6,12.26,40.7,12.26,40.7l1.78-23.4v-14.13h-3.92v-15.8l-2.05,3.33-1.44-9.98-1.08-7.48-4.59-6.66v5.83l-6.83-9.98v8.31l-8.34-8.31,1.71,7.48-11.84-3.33Z"/><path class="i" d="M24.79,268.97l9.65,7.49-4.62,3.32,9.15,4.99-4.53,9.14h7.36s2.17,4.15,0,5.82v10.01h7.09l-.98,4.25h11.31s-9.4-36.1-12.26-40.7c-2.82-4.52-23.68-32.52-24.33-33.4v-.02l7.57,23.28-4.73-5.83,4,10.81-4.66,.83Z"/><path class="h" d="M114.83,237.53l-.02,.02c-1.07,.87-35.28,28.87-39.91,33.4-4.7,4.6-20.11,40.7-20.11,40.7l-2.92-23.4v-14.13h6.43v-15.8l3.37,3.33,2.37-9.98,1.78-7.48,7.52-6.66v5.83l11.2-9.98v8.31l13.69-8.31-2.81,7.48,19.41-3.33Z"/><path class="i" d="M103.71,266.9l-15.82,7.49,7.58,3.32-15.01,4.99,7.44,9.14h-12.07s-3.57,4.15,0,5.82v10.01h-11.62l1.61,4.25h-18.55s15.41-36.1,20.11-40.7c4.63-4.52,38.84-32.52,39.91-33.4l.02-.02-12.44,23.28,7.75-5.83-6.56,10.81,7.64,.83Z"/><path class="h" d="M35.26,211.42h.02c.79,.37,25.94,11.79,29.55,13.83,3.67,2.07,21.77,22.96,21.77,22.96l-5.29-16.31-4.07-9.47-3.21,1.38-4.55-10.59-.72,2.95-4.06-6.18-3.04-4.63-5.67-2.85,1.68,3.91-8.47-4.28,2.4,5.57-9.23-2.63,3.56,4.41-10.65,1.94Z"/><path class="i" d="M45.45,230.15l10.06,1.62-2.83,3.85,8.93,.13-1.08,7.73,6.02-2.59s2.98,2.02,1.68,3.9l2.88,6.71,5.8-2.5,.42,3.19,9.26-3.98s-18.1-20.89-21.77-22.96c-3.61-2.04-28.76-13.46-29.55-13.82h-.02l12.92,12.93-5.55-2.24,6.39,5.84-3.58,2.2Z"/><path class="h" d="M104.04,180.2v.02c-.64,.96-20.58,31.78-23.07,36.44-2.52,4.74-4.74,34.36-4.74,34.36l-9.13-14.66-4.07-9.47,5.27-2.26-4.55-10.59,3.72,1.05-.94-7.52-.7-5.64,4.24-7.11,1.68,3.91,6.3-10.63,2.4,5.57,8.81-10.39-.15,6,14.94-9.07Z"/><path class="i" d="M109.48,200.97l-10.8,10.59,7.17-.45-10.85,8.63,8.73,3.51-9.88,4.25s-1.72,4.04,1.68,3.9l2.88,6.71-9.52,4.09,2.54,2.28-15.19,6.53s2.22-29.62,4.74-34.36c2.49-4.66,22.43-35.48,23.06-36.44v-.02l-3.46,19.99,4.67-6.63-2.26,9.56,6.5-2.13Z"/><path class="e" d="M15.82,200.4c-.79-1.12-.28-2.69,1.01-3.13l1.89-.65,22.33-7.69,10.05-3.46,19.68-6.34c.99-.32,2.02,.33,2.15,1.36,.91,6.88,2.4,30.05-16.79,38.79-18.89,8.61-35.38-11.85-40.33-18.87Z"/><path class="d" d="M50.36,192.66l13.11,12.16c.92,.85,1.13,2.18,.52,3.24-1.97,3.39-3.24,8.59-14.17,9.59-1.73,.16-3.23-1.19-3.15-2.84,.54-10.49-2.22-16.33-1.23-20.78,.47-2.15,3.25-2.92,4.93-1.37Z"/><path class="d" d="M50.25,186.98l17.29-4.64c1.25-.11,2.89,1.26,3.26,2.42,1.19,3.74,1.77,7.41-2.4,16.94-.69,1.59-3.05,1.6-4.22,.43-7.42-7.44-12.34-8.89-14.98-12.61-1.28-1.8-1.22-2.34,1.05-2.54Z"/><path class="d" d="M43.7,195.93l1.48,19.68c-.06,1.21-.92,2.24-2.12,2.51-3.83,.89-7.48-.56-15.25-7.46-1.23-1.09-1.17-3.03,.13-4.07,8.29-6.61,8.45-10.61,12.44-12.89,1.93-1.1,3.41,.02,3.31,2.21Z"/><path class="d" d="M22.85,205.73c-2.29-1.66-3.61-4.05-4.12-9.12l22.33-7.69c.4,.84,.04,1.88-1.04,2.74l-13.89,14.02c-.94,.75-2.29,.77-3.28,.05Z"/><polygon class="r" points="51.01 313.27 30.46 313.27 17.59 157.42 38.13 157.42 51.01 313.27"/><path class="m" d="M95.41,73.53c-2.05,3.78-5.12,3.92-6.53,14.65l.13,14.41-3.01,.06-.2-19.16L127.2,4.61l3.87,3.46-35.66,65.46Z"/><polygon class="m" points="83.18 82.1 83.4 102.7 80.05 102.76 79.84 82.15 124.26 1.98 124.98 2.63 83.18 82.1"/><polygon class="j" points="97.06 102.59 98.9 305.83 96.16 305.5 93.62 305.19 88.36 304.55 88.36 304.39 85.89 138.25 85.87 137.07 85.36 102.81 85.06 82.67 85.28 81.87 85.51 102.81 88.1 102.75 91.45 102.7 94.05 102.65 97.06 102.59"/><polygon class="p" points="85.8 83.49 86 102.65 83.4 102.7 83.18 82.1 124.98 2.63 127.2 4.61 85.8 83.49"/><polygon class="l" points="88.11 305.5 85.58 305.83 85.57 305.19 83.4 102.7 86 102.65 88.11 305.5"/><polygon class="n" points="79.62 82.15 79.83 102.76 77.24 102.81 77.01 81.87 77.01 81.85 77.57 79.88 100.76 37.95 100.98 37.55 121.82 0 124.04 1.98 79.62 82.15"/><polygon class="k" points="80.05 102.76 82.15 304.16 80.31 304.4 79.62 304.49 77.84 138.26 77.82 137.07 77.46 102.81 80.05 102.76"/><polygon class="n" points="89.38 84.3 113.14 41.48 89.95 83.41 89.39 85.38 89.38 84.3"/></g></g></svg>