<?xml version="1.0" encoding="UTF-8"?><svg xmlns="http://www.w3.org/2000/svg" viewBox="0 0 167.55 152.36"><defs><style>.d{fill:#cd8c2a;}.e{fill:#ddd76d;}.f{opacity:.76;}.f,.g{fill:#fffcf0;}.h{fill:#81c341;}.i{fill:#acd372;}.j{fill:#e9e970;}.k{fill:#c9c65e;}.g{opacity:.61;}</style></defs><g id="a"/><g id="b"><g id="c"><path class="i" d="M60.85,4.42h.01c.62,.61,20.41,19.63,23.09,22.7,2.72,3.12,11.63,27.64,11.63,27.64l1.69-15.9v-9.6h-3.72v-10.73l-1.95,2.26-1.37-6.78-1.03-5.08-4.35-4.52v3.96l-6.48-6.78V7.25l-7.92-5.65,1.63,5.08-11.23-2.26Z"/><path class="h" d="M62.93,24.19l9.16,5.09-4.39,2.25,8.68,3.39-4.3,6.21h6.98s2.06,2.82,0,3.95v6.8h6.73l-.93,2.88h10.73s-8.92-24.52-11.63-27.64c-2.68-3.07-22.47-22.09-23.09-22.69h-.01l7.2,15.8-4.48-3.96,3.8,7.34-4.42,.57Z"/><path class="i" d="M141.26,3.01h-.02c-1.01,.61-33.49,19.63-37.88,22.7-4.46,3.12-19.08,27.64-19.08,27.64l-2.77-15.9v-9.6h6.1v-10.73l3.2,2.26,2.25-6.78,1.69-5.08,7.14-4.52v3.96L112.51,.19V5.84L125.5,.19l-2.67,5.08,18.42-2.26Z"/><path class="h" d="M137.83,22.78l-15.02,5.09,7.2,2.25-14.24,3.39,7.06,6.21h-11.45s-3.38,2.82,0,3.95v6.8h-11.03l1.53,2.88h-17.61s14.63-24.52,19.08-27.64c4.39-3.07,36.86-22.09,37.88-22.69h.02l-11.81,15.8,7.36-3.96-6.23,7.34,7.26,.57Z"/><ellipse class="j" cx="33" cy="33.43" rx="33" ry="33.43"/><path class="k" d="M34.54,28.76l9.3-20.1c.36-.78,.06-1.71-.7-2.12-3.05-1.62-10.87-4.9-17.99-.4-.98,.62-1.4,1.86-1.02,2.97,2.59,7.46,6.73,15.99,8.58,19.68,.38,.76,1.46,.74,1.82-.03Z"/><path class="k" d="M38.27,31.2l21.34-5.06c.83-.2,1.36-1.02,1.21-1.86-.63-3.43-2.94-11.68-10.83-14.55-1.09-.4-2.31,.04-2.93,1.03-4.18,6.69-8.22,15.26-9.93,19.02-.35,.77,.33,1.62,1.15,1.43Z"/><path class="k" d="M30.11,29.76L20.81,9.66c-.36-.78-1.26-1.14-2.05-.81-3.18,1.33-10.67,5.33-11.81,13.75-.16,1.16,.52,2.28,1.6,2.69,7.32,2.75,16.44,4.99,20.42,5.9,.82,.19,1.5-.66,1.14-1.44Z"/><path class="k" d="M27.39,32.8L6.1,27.53c-.83-.2-1.67,.28-1.91,1.11-.97,3.35-2.6,11.76,3.16,17.94,.8,.85,2.08,1.02,3.08,.42,6.71-4.05,14.15-9.84,17.35-12.4,.66-.53,.43-1.6-.39-1.8Z"/><path class="k" d="M30.09,35.78l-17.27,13.67c-.67,.53-.82,1.5-.32,2.21,1.99,2.85,7.51,9.35,15.86,8.6,1.15-.1,2.08-1.02,2.23-2.18,1.02-7.84,1.14-17.35,1.13-21.48,0-.85-.97-1.33-1.64-.81Z"/><path class="k" d="M33.99,36.56l.46,22.2c.02,.86,.7,1.56,1.55,1.58,3.44,.09,11.89-.49,16.3-7.71,.61-1,.44-2.3-.39-3.12-5.59-5.53-13.03-11.32-16.3-13.79-.67-.51-1.63,0-1.62,.84Z"/><path class="e" d="M28.58,6.39l-.27,.82c-.09,.29-.1,.6-.03,.89l5.09,19.38-7.13-18.36c-.1-.25-.11-.53-.03-.78l.21-.7c.22-.74,.9-1.24,1.66-1.24h.5Z"/><path class="e" d="M51.08,12.42l-.78,.35c-.27,.12-.51,.32-.67,.58l-10.74,16.85,8.63-17.7c.12-.24,.31-.43,.55-.55l.66-.31c.69-.33,1.51-.16,2.02,.41l.33,.37Z"/><path class="e" d="M9.37,20.4l.45,.73c.16,.26,.39,.46,.66,.59l18,8.36-18.52-6.12c-.25-.08-.47-.25-.61-.48l-.4-.61c-.42-.64-.37-1.49,.11-2.08l.32-.39Z"/><path class="e" d="M6.95,43.82l.85,.08c.3,.03,.6-.03,.86-.17l17.5-9.38-16.06,11.17c-.22,.15-.48,.22-.75,.2l-.72-.05c-.76-.06-1.39-.61-1.56-1.36l-.11-.49Z"/><path class="e" d="M26.18,58.27l.59-.62c.21-.22,.35-.49,.4-.79l3.61-19.72-1.33,19.69c-.02,.27-.13,.52-.3,.72l-.49,.54c-.51,.57-1.33,.73-2.02,.4l-.45-.22Z"/><path class="d" d="M166.89,54.42c-5-13.37-17.39-10.29-23.78-8.87s-10.14,11.74-10.14,11.74c-1.24-9.55-3.19-18.75-6.04-26.94-.19-.54-.41-.72-.41-.75h-.12c-9-.02-20.39-.03-32.1-.03-22.3,0-45.76,.03-56.08,.04-.64,0-1.65,.75-2.08,1.83-5.52,13.68-11.23,67-5.25,101.92,.32,1.83,.66,3.64,1.04,5.42,1.69,7.91,8.64,13.58,16.72,13.58H114.21c8.34,0,15.46-6.02,16.85-14.25,.85-5.03,1.68-11.36,2.36-18.52,1.15-1.23,4.28-4.54,6.49-6.6,10.05-9.34,8.22-7.61,16.5-16.09,6.65-6.81,13.29-34.98,10.48-42.48Zm-13.79,38.24c-3.8,3.68-10.56,10.13-14.85,13.93-1.3,1.15-3.34,.25-3.37-1.48l-.06-10.7v-.07l-.07-13.9-.09-15.56c-.01-.66,.14-1.32,.45-1.91,1.63-3.16,4.82-10.66,7.17-11.78,.77-.37,3.05-1.92,5.06-1.92,8.69,0,13.54,0,15.42,5.48,2.76,8.06-5.18,32.92-9.66,37.91Z"/><path class="d" d="M134.82,94.34l-.07-13.9c.14,4.69,.15,9.34,.07,13.9Z"/><path class="g" d="M46.41,29.6s-14.87,77.07,8.57,122.76h20.04s-10.71-22.67-10.44-34.8c.26-12.12-8.02-78.95,0-87.96-7.98-.01-18.17,0-18.17,0Z"/><path class="f" d="M111.94,29.59s6.38,77.07-3.68,122.76h-8.6s4.6-22.67,4.48-34.8c-.11-12.12,3.44-78.95,0-87.96,3.43-.01,7.8,0,7.8,0Z"/></g></g></svg>