<?xml version="1.0" encoding="UTF-8"?><svg xmlns="http://www.w3.org/2000/svg" viewBox="0 0 126.51 132.31"><defs><style>.d{fill:#917c2f;}.e{fill:#f0efef;}.f{fill:#d9ad27;}.g{fill:#ffd892;}.h{fill:#e0ddda;}.i{fill:#bcbcbc;}.j{fill:#ca8a2b;}</style></defs><g id="a"/><g id="b"><g id="c"><path class="i" d="M9.72,0s-22.24,73.63,.56,127.81c1.14,2.7,3.15,4.46,6.08,4.47,27.8,.06,77.06,0,93.8-.01,3.41,0,6.49-2.54,7.77-5.71,7.49-18.56,15.38-86.55-1.25-126.56H9.72Z"/><path class="h" d="M50.51,126.31c-12.45,0-24.57,0-34.14-.03-.06,0-.1,0-.12,0,0-.02-.24-.22-.44-.83C0,77.76,10.15,17.02,14.31,0H112.56c13.77,40.08,6.8,105.99-.21,124.22-.46,1.21-1.54,2.05-2.21,2.05-10.97,.01-35.92,.04-59.64,.04Z"/><path class="d" d="M7.13,54.67H120.2c1.82,0-2.41,55.69-5.56,64.09-2.74,7.33-4.5,7.51-4.5,7.51H16.37l-3.52-8.71c-4.02-9.98-9.18-47.83-5.72-62.89Z"/><path class="f" d="M16.59,54.67s-3,47.28,9,70.97c19.11,0,16.92,.66,16.92,.66,0,0-3.35-16.59-5.35-29.59s.44-42.04,.44-42.04H16.59Z"/><path class="j" d="M90.31,103.17c-6.85,11.65-.29,22.03,0,22.46-.52-.2-17.04-6.85-19.99-22.46-3-15.85,10-29.06,10-29.06,0,0,13-7.08,17.6-19.45h11.52c.02,.06,.04,.13,.05,.19,.65,2.94,.83,5.87,.83,8.68,0,9.25-13,27.75-20,39.64Z"/><path class="j" d="M99.03,38.89c-1.4-1.07-2.96-2.11-4.72-3.1,0,0,3.3-1.25,4.72,3.1Z"/><path class="g" d="M109.43,54.66h-11.52s.01-.02,.01-.03c.66-1.77,1.14-3.65,1.39-5.63,.63-4.97,.37-8.12-.28-10.11,6.29,4.81,9.16,10.3,10.4,15.77Z"/><path class="e" d="M16.59,54.67S16.26,16.23,24.7,0h20l-7.11,54.67H16.59Z"/></g></g></svg>