<?xml version="1.0" encoding="UTF-8"?><svg xmlns="http://www.w3.org/2000/svg" xmlns:xlink="http://www.w3.org/1999/xlink" viewBox="0 0 90.57 263.23"><defs><style>.e{fill:#ef4343;}.f{fill:#f48059;opacity:.56;}.g{fill:#f2654e;}.h{fill:#e0ddda;}.i{fill:#f3b91a;}.j{fill:url(#d);}.k{fill:#bcbcbc;}.l{fill:#fee958;}.m{fill:#fefded;opacity:.58;}</style><linearGradient id="d" x1="45.87" y1="136.71" x2="45.87" y2="76.37" gradientTransform="matrix(1, 0, 0, 1, 0, 0)" gradientUnits="userSpaceOnUse"><stop offset="0" stop-color="#ed1c24"/><stop offset=".17" stop-color="#f1483c"/><stop offset=".4" stop-color="#f67e59"/><stop offset=".6" stop-color="#faa66e"/><stop offset=".76" stop-color="#fdbe7b"/><stop offset=".85" stop-color="#fec780"/></linearGradient></defs><g id="a"/><g id="b"><g id="c"><path class="e" d="M12.69,33.66c0,7.6,5.86,13.75,13.09,13.75s13.09-6.16,13.09-13.75-5.86-13.75-13.09-13.75c-1.81,0-3.53,.38-5.1,1.08-4.7,2.09-8,6.98-8,12.67Z"/><path class="g" d="M12.69,35.38c0,6.65,5.33,12.04,11.9,12.04s11.9-5.39,11.9-12.04-5.33-12.04-11.9-12.04c-1.64,0-3.21,.34-4.63,.95-4.27,1.83-7.27,6.1-7.27,11.09Z"/><path class="f" d="M17.3,30.41c-1.34,2.37-.09,5.74,2.79,7.54,2.88,1.8,6.3,1.33,7.64-1.03s.09-5.74-2.79-7.54c-.72-.45-1.47-.76-2.22-.93-2.24-.52-4.41,.19-5.42,1.96Z"/><path class="e" d="M.4,1.94c2.95,1.38,12.25,5.77,14.96,7.59h3.2c-.72-.74-1.5-1.39-2.33-1.87C11.73,5.03,3.47,1.01,1.5,.06,1.25-.06,.95,0,.75,.21L.2,.78c-.34,.36-.24,.95,.2,1.16Z"/><path class="e" d="M15.36,9.53c.1,.06,.18,.13,.26,.19,2.74,2.02,6.12,10.86,6.12,10.86l2.84-.64s-2.26-6.53-6.02-10.41h-3.2Z"/><path class="i" d="M82.69,60.46c-.66,1.14-2.22,1.32-3.13,.37l-1.32-1.38-15.6-16.32-7.02-7.34-13.37-14.55c-.67-.73-.52-1.88,.32-2.41,5.61-3.54,25.12-14.09,40.38-.92,15.03,12.96,3.86,35.45-.27,42.56Z"/><path class="l" d="M62.17,33.57l5.32-16.24c.37-1.14,1.44-1.86,2.6-1.74,3.73,.36,8.75-.62,13.99,8.47,.83,1.43,.26,3.28-1.21,3.87-9.32,3.73-13.29,8.45-17.55,9.38-2.06,.45-3.83-1.66-3.16-3.73Z"/><path class="l" d="M57.29,35.94l-10.94-13.16c-.6-1.04-.06-3.01,.8-3.79,2.77-2.52,5.72-4.5,15.67-4.69,1.66-.03,2.61,2.01,2.06,3.49-3.5,9.41-2.79,14.27-4.96,18.05-1.05,1.83-1.55,2-2.63,.1Z"/><path class="l" d="M67.67,38.05l16.5-9.15c1.07-.43,2.31-.09,3.03,.83,2.3,2.97,2.51,6.72-.38,16.22-.46,1.5-2.16,2.23-3.59,1.51-9.05-4.55-12.58-3.1-16.16-5.65-1.73-1.24-1.34-2.97,.6-3.76Z"/><path class="l" d="M84.52,52.23c-.53,2.65-2.07,4.75-6.27,7.22l-15.6-16.32c.57-.68,1.62-.79,2.79-.19l17.73,6.46c1.03,.52,1.58,1.68,1.36,2.83Z"/><path class="k" d="M53.44,171.17c-.08,.21-.12,.43-.12,.66,.03,5.5,.43,75.38,1.6,78.98,1.05,3.23,18.65,7.56,23.51,8.7,.75,.17,1.32,.79,1.44,1.55,.02,.09,.02,.19,.02,.28,0,1.03-.85,1.9-1.91,1.88l-30.7-.35h-.13l-30.7,.35c-1.06,.02-1.91-.85-1.91-1.88,0-.09,0-.19,.02-.29,.11-.76,.67-1.38,1.43-1.55,4.86-1.14,22.47-5.47,23.51-8.7,1.17-3.6,1.57-73.48,1.6-78.98,0-.23-.04-.45-.12-.66-.82-2.17,1.4-9.8-7.93-17.96-3.39-2.96-13.39-10.46-19.66-25.63-5.77-13.94,6.36-85.96,8.17-97.22,.15-.89,.81-1.53,1.57-1.53h45.44c.77,0,1.43,.64,1.57,1.53,1.81,11.26,13.94,83.28,8.17,97.22-6.28,15.17-13.57,22.67-16.96,25.63-9.34,8.16-7.12,15.79-7.93,17.96Z"/><path class="h" d="M32.11,259.13c9.92-3.44,10.66-5.79,11.12-7.24,.9-2.82,1.5-30.26,1.79-81.55,0-.67-.1-1.31-.31-1.92-.03-.24-.05-.77-.07-1.17-.15-3.66-.48-11.29-9.02-18.88-.31-.28-.68-.59-1.09-.95-3.95-3.4-12.17-10.47-17.53-23.65-1.52-3.75-3.79-20.48,8.1-94.72l.04-.22h41.42l.03,.2c11.89,74.25,9.63,90.99,8.1,94.74-5.8,14.25-12.46,21.52-15.91,24.59-8.54,7.59-8.86,15.22-9.02,18.88-.02,.4-.04,.93-.07,1.17-.21,.62-.31,1.25-.31,1.89,.29,51.32,.89,78.76,1.79,81.58,.46,1.45,1.21,3.8,11.12,7.23l-15.16-.17-15.03,.17Z"/><path class="j" d="M22.97,42.97c-10.33,64.51-7.4,79.6-5.94,83.11,5.36,12.95,13.58,19.9,17.53,23.24,.41,.35,.78,.66,1.09,.93,2.64,2.31,4.49,4.61,5.8,6.81h11.56c1.31-2.2,3.16-4.51,5.8-6.81,3.45-3.01,10.11-10.16,15.91-24.17,1.45-3.51,4.39-18.61-5.94-83.11H22.97Z"/><path class="m" d="M39.24,28.84l-2.9,64s0,24.9,3.43,36.27c3.43,11.38,7.3,27.96,7.3,27.96v96.11l-3.22,5.96h-7.51l8.37-6.82v-95.09s-15.24-23.4-16.1-32.63,1.5-62.68,2.58-76.2,1.4-19.57,1.4-19.57h6.65Z"/></g></g></svg>