<?xml version="1.0" encoding="UTF-8"?><svg xmlns="http://www.w3.org/2000/svg" viewBox="0 0 99.65 233.3"><defs><style>.d{fill:#b78977;}.e{fill:none;stroke:#707071;}.f{fill:#a59584;}.g{fill:#b0aba3;}.h{fill:#d4cfc9;}.i{fill:#b69c86;}.j{fill:#c1bdb8;}.k{fill:#a37c69;}</style></defs><g id="a"/><g id="b"><g id="c"><line class="e" x1=".2" y1="78.83" y2="78.83"/><line class="e" x1=".2" y1="105.62" y2="105.62"/><path class="g" d="M69.66,18.35v.07H30.52c-.18,0-.36,0-.53,.02v-.09h39.67Z"/><path class="g" d="M99.65,115.59v110.51c0,3.98-3.22,7.2-7.2,7.2H7.2C3.22,233.3,0,230.08,0,226.1V115.59C0,99.44,9.91,85.6,23.99,79.84c3.61-1.48,6-4.96,6-8.86V33.91c-2.91-.27-5.19-2.73-5.19-5.71v-4.06c0-2.98,2.28-5.44,5.19-5.71,.17-.01,.35-.02,.53-.02h39.14c3.14,.03,5.67,2.58,5.67,5.73v4.06c0,3.15-2.53,5.7-5.67,5.73v37.05c0,3.9,2.39,7.38,6,8.86,14.08,5.76,23.99,19.59,23.99,35.75Z"/><path class="j" d="M7.2,228.58c-1.37,0-2.48-1.11-2.48-2.48V115.59c0-7.84,2.6-15.19,7.51-21.27,4.77-5.91,11.45-10.09,18.81-11.77h0c2.15-.49,3.67-2.4,3.67-4.6V29.61l-4.29-.4c-.51-.05-.91-.49-.91-1.01v-4.06c0-.51,.39-.94,.89-1,.04,0,.08,0,.12,0h39.1c.54,.01,.98,.46,.98,1.01v4.06c0,.55-.44,1-.99,1l-4.67,.05v48.68c0,2.2,1.52,4.11,3.67,4.6h0c7.36,1.68,14.04,5.86,18.81,11.77,4.91,6.08,7.51,13.44,7.51,21.27v110.51c0,1.37-1.11,2.48-2.48,2.48H7.2Z"/><rect class="k" x="24.79" y="0" width="50.53" height="18.42" rx="7.07" ry="7.07"/><rect class="d" x="35.78" width="39.55" height="18.35" rx="6.01" ry="6.01"/><path class="h" d="M49.83,29.48v63.7c0,2.03-.73,4.02-2.1,5.71l-15.96,19.71c-1.52,1.88-2.33,4.09-2.31,6.35l.65,103.63H12.99V118.89c0-4.66,2.26-15.39,6.65-18.35l6.46-5.65c2.83-1.91,13.43-8.13,13.43-11.14l-.87-51.44c-.03-1.57-1.31-2.84-2.88-2.84h0v-6.33h11.29v3.57c0,1.53,1.24,2.76,2.76,2.76h0Z"/><rect class="f" x="0" y="125.86" width="99.65" height="73.17"/><path class="i" d="M41.44,125.86h58.21v73.17H41.44c-10.74,0-19.46-8.72-19.46-19.46v-34.25c0-10.74,8.72-19.46,19.46-19.46Z"/></g></g></svg>