<?xml version="1.0" encoding="UTF-8"?><svg xmlns="http://www.w3.org/2000/svg" viewBox="0 0 152.22 183.08"><defs><style>.d{fill:#f9f39f;}.e{fill:#f3f9ef;opacity:.74;}.f{fill:#ffd460;}.g{fill:#e0ddda;}.h{fill:#bcbcbc;}.i{fill:#f8ed47;}.j{fill:#fef59c;}</style></defs><g id="a"/><g id="b"><g id="c"><path class="i" d="M141.75,62.74c-.86,1.44-2.85,1.64-3.99,.42l-1.66-1.78-19.6-21.06-8.82-9.48-16.78-18.78c-.84-.94-.63-2.41,.45-3.07,7.21-4.41,32.26-17.53,51.48-.48,18.93,16.78,4.3,45.25-1.08,54.23Z"/><path class="j" d="M116.06,28.11l7.06-20.61c.5-1.45,1.87-2.34,3.35-2.18,4.75,.52,11.16-.64,17.69,11.04,1.03,1.84,.28,4.18-1.61,4.91-11.95,4.59-17.09,10.54-22.53,11.65-2.63,.54-4.86-2.18-3.96-4.81Z"/><path class="j" d="M109.79,31.04l-13.71-16.96c-.74-1.34-.03-3.84,1.08-4.82,3.57-3.17,7.37-5.63,20.05-5.7,2.11-.01,3.29,2.6,2.56,4.49-4.62,11.93-3.8,18.14-6.63,22.92-1.37,2.31-2.01,2.52-3.35,.08Z"/><path class="j" d="M122.99,33.91l21.19-11.38c1.37-.53,2.95-.08,3.84,1.12,2.88,3.82,3.08,8.61-.76,20.67-.61,1.9-2.79,2.8-4.6,1.86-11.45-5.96-15.99-4.16-20.5-7.49-2.18-1.61-1.66-3.81,.83-4.78Z"/><path class="j" d="M144.21,52.28c-.72,3.37-2.72,6.02-8.12,9.09l-19.6-21.06c.74-.86,2.08-.97,3.56-.2l22.48,8.54c1.3,.68,1.99,2.17,1.68,3.63Z"/><path class="h" d="M99.55,183.08H27.82c-3.09,0-5.69-1.91-6.06-4.44L.01,29.81c-.1-.69,.55-1.3,1.4-1.3H125.97c.84,0,1.5,.61,1.4,1.3l-21.75,148.82c-.37,2.53-2.97,4.44-6.06,4.44Z"/><path class="g" d="M27.82,168.88c-.44,0-.8-.26-.86-.6L6.1,30.9c-.19-1.27,1.05-2.39,2.66-2.39H118.62c1.61,0,2.85,1.12,2.66,2.39l-20.87,137.38c-.05,.34-.42,.6-.86,.6H27.82Z"/><path class="d" d="M101.94,154.13l-74.91-.54c-1.51,.16-2.42-.44-2.17-1.39L12.64,71.19H115.16l-10.98,81.52c-.12,.81-1.09,1.42-2.23,1.41Z"/><path class="f" d="M100.11,169.18l-71.25-.54c-1.44,.16-2.3-.44-2.07-1.39L14.91,86.24H112.94l-10.7,81.52c-.12,.81-1.04,1.42-2.12,1.41Z"/><polygon class="e" points="17.15 28.51 38.39 169.18 52.89 169.18 30.92 28.51 17.15 28.51"/></g></g></svg>